<?xml version="1.0" encoding="UTF-8"?>
<svg id="Camada_1" data-name="Camada 1" xmlns="http://www.w3.org/2000/svg" viewBox="0 0 500 90">
  <defs>
    <style>
      .cls-1 {
        fill: #fff;
      }
    </style>
  </defs>
  <path class="cls-1" d="M356.3,17.35h-15.54l-9.03,14.28-9.02-14.28h-15.54l16.2,25.23-12.91,19.9-18.39-45.13h-12.87l-18.29,44.9V17.35h-11.54l-16.72,23.45-16.72-23.45h-11.54v44.9l-18.29-44.9h-12.87l-21.01,51.57h14.8l2.74-6.73h19.83l2.66,6.73h14.87,0s10.3,0,10.3,0v-27.3l15.24,21.09,15.24-21.09v27.3h10.3,0s14.8,0,14.8,0l2.74-6.73h19.83l2.67,6.73h8.07l-10.36,15.97h15.38l20.42-31.72,10.13,15.76h15.31l-17.09-26.34,16.2-25.23ZM173.45,51.3l6.21-15.98,6.21,15.98h-12.43ZM279.43,51.3l6.22-15.98,6.21,15.98h-12.43ZM91.1,17.35l-18.6,45.65V17.35h-14.06v17.9h-19.38v-17.9h-14.06v51.56h14.06v-20.79h19.38v20.79h11.64,0s14.8,0,14.8,0l2.74-6.73h19.83l2.66,6.73h14.87l-21.01-51.57h-12.87ZM91.32,51.3l6.22-15.98,6.21,15.98h-12.43ZM149.92,17.35l-11.32,20.05-11.32-20.05h-15.09l19.46,33.29v18.27h13.91v-18.27l19.46-33.29h-15.09ZM400.25,9.95l2.08-3.61-2.11-1.22-13.36,23.15c-6.74,3.66-11.32,10.8-11.32,19.02,0,.19,0,.39,0,.58l-5.99,10.37,2.11,1.22,28.58-49.51h0ZM456.12,59.36c-3.26,0-5.92,2.65-5.92,5.92s2.65,5.92,5.92,5.92,5.92-2.65,5.92-5.92-2.65-5.92-5.92-5.92ZM456.12,69.21c-2.14,0-3.89-1.76-3.89-3.93s1.74-3.93,3.89-3.93,3.89,1.76,3.89,3.93-1.74,3.93-3.89,3.93ZM397.15,25.66c-1.12,0-2.23.09-3.31.25l-16.86,29.2c3.14,8.08,10.98,13.8,20.16,13.8,11.94,0,21.63-9.68,21.63-21.63s-9.68-21.63-21.63-21.63ZM462.06,53.78c4.72-3.97,7.71-9.91,7.71-16.56,0-11.94-9.68-21.63-21.63-21.63s-21.63,9.68-21.63,21.63c0,6.64,3,12.59,7.71,16.56h-12.94v2.44h53.71v-2.44h-12.94ZM469.06,59.37c-2.1.41-3.37,3.01-4.13,4.56l-.94,1.95c-.42.88-1.55,3.22-2.41,3.36l-.72.12.45,1.93.63-.1c1.85-.3,3.06-2.8,3.86-4.45l.88-1.82c.55-1.14,1.56-3.26,2.81-3.55l.65-.15-.42-1.96-.66.13ZM447.65,67.55l-7.67-7.96h-1.53v11.37h2.02v-7.96l7.67,7.96h1.53v-11.37h-2.02v7.96ZM431.32,59.44l-5.22,10.77,1.8.88,4.04-8.4,4.04,8.4,1.8-.88-5.21-10.77h-1.26Z"/>
</svg>